<svg width="46" height="54" viewBox="0 0 46 54" fill="none" xmlns="http://www.w3.org/2000/svg">
<path d="M29.8008 10.6468C27.7278 9.49369 25.3834 8.90512 23.0063 8.941C20.6132 8.90792 18.2531 9.49603 16.1606 10.6468C14.1522 11.7421 12.4873 13.3643 11.3486 15.3355C10.2079 17.3824 9.60954 19.6824 9.60954 22.0205C9.60954 24.3586 10.2079 26.6586 11.3486 28.7054C12.4857 30.679 14.1509 32.3032 16.1606 33.3987C18.2543 34.5459 20.6139 35.1323 23.0063 35.0999C25.3828 35.1355 27.7267 34.5486 29.8008 33.3987C31.7882 32.2897 33.435 30.6677 34.5662 28.7054C35.707 26.6586 36.3053 24.3586 36.3053 22.0205C36.3053 19.6824 35.707 17.3824 34.5662 15.3355C33.4334 13.3756 31.7869 11.7556 29.8008 10.6468Z" fill="#EE851F"/>
<path d="M7.18795 6.62183C3.01699 10.756 0.67395 16.3619 0.67395 22.207C0.67395 28.0521 3.01699 33.658 7.18795 37.7922L22.9176 53.375L38.6473 37.7922C40.7481 35.7532 42.4201 33.3218 43.5664 30.6386C44.7127 27.9555 45.3107 25.0738 45.3258 22.1602C45.3409 19.2467 44.7727 16.3591 43.6542 13.6644C42.5357 10.9697 40.889 8.52152 38.8093 6.4613C36.7297 4.40107 34.2584 2.76975 31.5384 1.66166C28.8183 0.553578 25.9035 -0.00926872 22.9625 0.00566048C20.0215 0.0205897 17.1127 0.613 14.4042 1.74864C11.6958 2.88428 9.2415 4.5406 7.18329 6.62183H7.18795ZM41.2115 22.0433C41.2643 25.1707 40.4601 28.2537 38.8846 30.9643C37.3311 33.5935 35.077 35.7484 32.3694 37.1928C29.4799 38.6773 26.2726 39.4522 23.0177 39.4522C19.7627 39.4522 16.5555 38.6773 13.666 37.1928C10.9456 35.7421 8.67916 33.5798 7.1135 30.9412C5.55488 28.2299 4.73527 25.1635 4.73527 22.0433C4.73527 18.9232 5.55488 15.8567 7.1135 13.1454C8.68077 10.5093 10.9469 8.34886 13.666 6.89845C16.5555 5.41397 19.7627 4.6391 23.0177 4.6391C26.2726 4.6391 29.4799 5.41397 32.3694 6.89845C35.0752 8.34318 37.3289 10.496 38.8846 13.1224C40.4597 15.8331 41.2638 18.916 41.2115 22.0433Z" fill="#EE851F"/>
</svg>
